<?xml version="1.0" standalone="no"?>
<!DOCTYPE svg PUBLIC "-//W3C//DTD SVG 20010904//EN"
 "http://www.w3.org/TR/2001/REC-SVG-20010904/DTD/svg10.dtd">
<svg version="1.0" xmlns="http://www.w3.org/2000/svg"
 width="240" height="150" viewBox="0 0 450.000000 300.000000"
 preserveAspectRatio="xMidYMid meet">

<g transform="translate(0.000000,300.000000) scale(0.100000,-0.100000)"
fill="#000000" stroke="none">
<path d="M1848 2895 c-107 -39 -119 -66 -120 -249 -1 -153 13 -230 58 -317 13
-27 24 -50 24 -53 0 -3 -26 -19 -59 -36 -82 -44 -207 -147 -261 -214 -25 -31
-50 -56 -56 -56 -7 0 -133 29 -280 65 -148 36 -280 65 -294 63 -20 -2 -25 -8
-25 -32 0 -27 22 -47 225 -203 124 -95 225 -177 225 -182 0 -4 -90 -95 -200
-201 -110 -106 -204 -199 -208 -206 -12 -21 11 -54 37 -54 18 0 324 84 383
105 7 2 20 -22 34 -63 71 -215 218 -391 422 -503 l48 -26 -38 -41 -38 -42
-155 50 c-173 56 -213 60 -218 19 -2 -14 3 -30 10 -36 7 -6 74 -30 148 -53 74
-23 137 -44 139 -46 3 -3 -30 -39 -72 -82 -80 -81 -94 -112 -58 -132 11 -5 23
-10 27 -10 3 0 43 36 88 80 l82 79 38 -142 c43 -160 58 -190 88 -185 45 7 44
27 -10 219 l-51 184 48 49 49 49 83 -21 c219 -56 437 -52 615 12 l42 14 33
-46 c19 -25 37 -51 42 -58 5 -8 -22 -72 -68 -163 -41 -83 -75 -159 -75 -170 0
-25 25 -44 47 -37 11 4 45 60 86 141 37 74 70 135 74 135 5 -1 36 -39 71 -86
66 -89 84 -104 111 -87 31 19 21 48 -44 136 -41 55 -61 89 -53 92 7 2 80 10
163 19 118 12 152 19 162 33 16 21 16 25 -1 48 -13 18 -18 18 -182 1 -93 -9
-179 -19 -191 -21 -16 -4 -29 6 -59 47 -20 29 -33 53 -27 55 29 10 142 84 198
131 l65 53 87 -65 c102 -77 213 -135 269 -143 114 -15 166 95 104 217 l-20 40
29 -6 c40 -8 98 13 117 42 16 24 16 80 0 117 -6 13 -3 17 11 17 11 0 30 12 44
26 21 22 24 35 24 92 -1 81 -32 149 -94 205 -55 49 -98 60 -224 55 l-106 -3
-6 55 c-18 158 -84 317 -182 440 -69 87 -191 187 -291 238 -53 27 -70 41 -66
52 44 102 44 235 0 325 -39 79 -104 147 -169 176 -41 19 -70 24 -137 24 -82 0
-88 -2 -176 -48 -50 -26 -96 -47 -103 -47 -6 0 -11 16 -11 35 0 116 -101 175
-222 130z m589 -629 c279 -59 494 -219 609 -451 52 -106 74 -198 74 -315 0
-117 -22 -209 -74 -315 -115 -232 -330 -392 -609 -451 -88 -18 -286 -18 -374
0 -279 59 -494 219 -609 451 -52 106 -74 198 -74 315 0 117 22 209 74 315 113
229 327 389 601 450 83 18 297 18 382 1z m-1197 -337 c74 -18 138 -35 143 -39
4 -3 -5 -34 -21 -69 l-28 -62 -140 107 c-76 59 -128 104 -114 101 14 -4 86
-21 160 -38z m56 -443 l1 -74 -96 -27 c-53 -15 -103 -30 -111 -33 -8 -2 32 43
90 102 57 58 107 106 110 106 3 0 5 -33 6 -74z m2159 -62 c50 -23 88 -84 93
-150 4 -49 3 -54 -15 -54 -11 0 -37 11 -57 25 -45 30 -72 32 -86 5 -12 -23
-11 -24 46 -100 23 -30 45 -65 49 -77 6 -21 3 -23 -25 -23 -17 0 -60 12 -96
26 -115 46 -146 14 -76 -79 53 -70 82 -130 82 -167 0 -27 -3 -30 -29 -30 -16
0 -59 15 -94 34 -65 34 -217 142 -217 154 0 4 14 27 31 52 67 99 139 283 139
356 0 19 7 24 43 32 69 16 175 14 212 -4z"/>
<path d="M1870 1942 c-43 -21 -74 -79 -65 -121 14 -67 107 -109 175 -81 96 40
92 165 -6 206 -44 18 -62 18 -104 -4z"/>
</g>
</svg>
